<mxfile host="app.diagrams.net" modified="2023-12-19T07:43:05.353Z" agent="Mozilla/5.0 (Windows NT 10.0; Win64; x64) AppleWebKit/537.36 (KHTML, like Gecko) Chrome/120.0.0.0 Safari/537.36" etag="haJyOdE_NjgXPoWKtA2z" version="22.1.11" type="github">
  <diagram id="C5RBs43oDa-KdzZeNtuy" name="Page-1">
    <mxGraphModel dx="1052" dy="565" grid="1" gridSize="10" guides="1" tooltips="1" connect="1" arrows="1" fold="1" page="1" pageScale="1" pageWidth="827" pageHeight="1169" math="0" shadow="0">
      <root>
        <mxCell id="WIyWlLk6GJQsqaUBKTNV-0" />
        <mxCell id="WIyWlLk6GJQsqaUBKTNV-1" parent="WIyWlLk6GJQsqaUBKTNV-0" />
        <mxCell id="4xnV7bBYr-C75Ydvn8o4-5" value="" style="rounded=0;whiteSpace=wrap;html=1;fillColor=none;strokeWidth=1.5;fontFamily=Times New Roman;spacing=2;fontSize=13;fontStyle=1;strokeColor=#006600;" parent="WIyWlLk6GJQsqaUBKTNV-1" vertex="1">
          <mxGeometry x="220" y="500" width="80" height="110" as="geometry" />
        </mxCell>
        <mxCell id="4xnV7bBYr-C75Ydvn8o4-1" value="" style="rounded=0;whiteSpace=wrap;html=1;fillColor=none;dashed=1;strokeWidth=2;dashPattern=8 8;fontFamily=Times New Roman;spacing=2;fontSize=13;fontStyle=1;strokeColor=#cb2525;" parent="WIyWlLk6GJQsqaUBKTNV-1" vertex="1">
          <mxGeometry x="270" y="410" width="300" height="140" as="geometry" />
        </mxCell>
        <mxCell id="4xnV7bBYr-C75Ydvn8o4-4" value="" style="endArrow=none;html=1;rounded=0;exitX=0;exitY=1;exitDx=0;exitDy=0;entryX=1;entryY=0;entryDx=0;entryDy=0;strokeWidth=1.5;fontFamily=Times New Roman;spacing=2;fontSize=13;fontStyle=1;strokeColor=#CC6600;" parent="WIyWlLk6GJQsqaUBKTNV-1" source="4xnV7bBYr-C75Ydvn8o4-1" target="4xnV7bBYr-C75Ydvn8o4-1" edge="1">
          <mxGeometry width="50" height="50" relative="1" as="geometry">
            <mxPoint x="160" y="560" as="sourcePoint" />
            <mxPoint x="210" y="510" as="targetPoint" />
          </mxGeometry>
        </mxCell>
        <mxCell id="4xnV7bBYr-C75Ydvn8o4-7" value="" style="rounded=0;whiteSpace=wrap;html=1;fillColor=none;strokeWidth=1.5;fontFamily=Times New Roman;spacing=2;fontSize=13;fontStyle=1;strokeColor=#006600;" parent="WIyWlLk6GJQsqaUBKTNV-1" vertex="1">
          <mxGeometry x="530" y="340" width="80" height="110" as="geometry" />
        </mxCell>
        <mxCell id="4xnV7bBYr-C75Ydvn8o4-11" value="" style="endArrow=none;html=1;rounded=1;entryX=0;entryY=0.75;entryDx=0;entryDy=0;fontFamily=Times New Roman;spacing=2;fontSize=13;fontStyle=1;strokeWidth=1.5;" parent="WIyWlLk6GJQsqaUBKTNV-1" target="4xnV7bBYr-C75Ydvn8o4-1" edge="1">
          <mxGeometry width="50" height="50" relative="1" as="geometry">
            <mxPoint x="290" y="540" as="sourcePoint" />
            <mxPoint x="460" y="510" as="targetPoint" />
            <Array as="points">
              <mxPoint x="290" y="530" />
            </Array>
          </mxGeometry>
        </mxCell>
        <mxCell id="4xnV7bBYr-C75Ydvn8o4-15" value="" style="endArrow=none;html=1;rounded=1;fontFamily=Times New Roman;spacing=2;fontSize=13;fontStyle=1;strokeWidth=1.5;" parent="WIyWlLk6GJQsqaUBKTNV-1" edge="1">
          <mxGeometry width="50" height="50" relative="1" as="geometry">
            <mxPoint x="336" y="520" as="sourcePoint" />
            <mxPoint x="336" y="550" as="targetPoint" />
            <Array as="points">
              <mxPoint x="350" y="530" />
            </Array>
          </mxGeometry>
        </mxCell>
        <mxCell id="4xnV7bBYr-C75Ydvn8o4-16" value="&lt;font style=&quot;&quot;&gt;&lt;font style=&quot;font-size: 16px;&quot;&gt;B&lt;/font&gt;&lt;sup style=&quot;&quot;&gt;&lt;font style=&quot;font-size: 10px;&quot;&gt;Pred&lt;/font&gt;&lt;/sup&gt;&lt;/font&gt;" style="text;html=1;align=center;verticalAlign=middle;resizable=0;points=[];autosize=1;strokeColor=none;fillColor=none;fontFamily=Times New Roman;spacing=2;fontSize=13;fontStyle=1" parent="WIyWlLk6GJQsqaUBKTNV-1" vertex="1">
          <mxGeometry x="240" y="550" width="50" height="30" as="geometry" />
        </mxCell>
        <mxCell id="4xnV7bBYr-C75Ydvn8o4-17" value="&lt;font style=&quot;font-size: 18px;&quot;&gt;α&lt;/font&gt;" style="text;html=1;align=center;verticalAlign=middle;resizable=0;points=[];autosize=1;strokeColor=none;fillColor=none;fontFamily=Times New Roman;spacing=2;fontSize=18;fontStyle=1" parent="WIyWlLk6GJQsqaUBKTNV-1" vertex="1">
          <mxGeometry x="340" y="505" width="30" height="40" as="geometry" />
        </mxCell>
        <mxCell id="4xnV7bBYr-C75Ydvn8o4-18" value="β" style="text;html=1;align=center;verticalAlign=middle;resizable=0;points=[];autosize=1;strokeColor=none;fillColor=none;fontFamily=Times New Roman;spacing=2;fontSize=18;fontStyle=1" parent="WIyWlLk6GJQsqaUBKTNV-1" vertex="1">
          <mxGeometry x="270" y="495" width="30" height="40" as="geometry" />
        </mxCell>
        <mxCell id="4xnV7bBYr-C75Ydvn8o4-19" value="σ" style="text;html=1;align=center;verticalAlign=middle;resizable=0;points=[];autosize=1;strokeColor=none;fillColor=none;fontFamily=Times New Roman;spacing=2;fontSize=18;fontStyle=1" parent="WIyWlLk6GJQsqaUBKTNV-1" vertex="1">
          <mxGeometry x="390" y="455" width="30" height="40" as="geometry" />
        </mxCell>
        <mxCell id="4xnV7bBYr-C75Ydvn8o4-20" value="&lt;font style=&quot;&quot;&gt;&lt;font style=&quot;font-size: 16px;&quot;&gt;B&lt;/font&gt;&lt;sup style=&quot;&quot;&gt;&lt;font style=&quot;font-size: 10px;&quot;&gt;GT&lt;/font&gt;&lt;/sup&gt;&lt;/font&gt;" style="text;html=1;align=center;verticalAlign=middle;resizable=0;points=[];autosize=1;strokeColor=none;fillColor=none;fontFamily=Times New Roman;spacing=2;fontSize=13;fontStyle=1" parent="WIyWlLk6GJQsqaUBKTNV-1" vertex="1">
          <mxGeometry x="530" y="380" width="50" height="30" as="geometry" />
        </mxCell>
        <mxCell id="4xnV7bBYr-C75Ydvn8o4-21" value="&lt;font style=&quot;&quot;&gt;&lt;font style=&quot;font-size: 15px;&quot;&gt;C&lt;/font&gt;&lt;sub style=&quot;font-size: 13px;&quot;&gt;h&lt;/sub&gt;&lt;/font&gt;" style="text;html=1;align=center;verticalAlign=middle;resizable=0;points=[];autosize=1;strokeColor=none;fillColor=none;fontSize=13;fontFamily=Times New Roman;fontStyle=1" parent="WIyWlLk6GJQsqaUBKTNV-1" vertex="1">
          <mxGeometry x="600" y="465" width="40" height="30" as="geometry" />
        </mxCell>
        <mxCell id="4xnV7bBYr-C75Ydvn8o4-22" value="&lt;font style=&quot;&quot;&gt;&lt;font style=&quot;font-size: 15px;&quot;&gt;C&lt;/font&gt;&lt;span style=&quot;font-size: 13px;&quot;&gt;w&lt;/span&gt;&lt;/font&gt;" style="text;html=1;align=center;verticalAlign=middle;resizable=0;points=[];autosize=1;strokeColor=none;fillColor=none;fontFamily=Times New Roman;spacing=2;fontSize=13;fontStyle=1" parent="WIyWlLk6GJQsqaUBKTNV-1" vertex="1">
          <mxGeometry x="400" y="585" width="40" height="30" as="geometry" />
        </mxCell>
        <mxCell id="4xnV7bBYr-C75Ydvn8o4-23" value="" style="endArrow=classic;html=1;rounded=0;exitX=0.5;exitY=1;exitDx=0;exitDy=0;strokeWidth=1.5;" parent="WIyWlLk6GJQsqaUBKTNV-1" source="4xnV7bBYr-C75Ydvn8o4-1" edge="1">
          <mxGeometry width="50" height="50" relative="1" as="geometry">
            <mxPoint x="410" y="560" as="sourcePoint" />
            <mxPoint x="420" y="585" as="targetPoint" />
          </mxGeometry>
        </mxCell>
        <mxCell id="4xnV7bBYr-C75Ydvn8o4-24" value="" style="endArrow=classic;html=1;rounded=0;exitX=1;exitY=0.5;exitDx=0;exitDy=0;strokeWidth=1.5;" parent="WIyWlLk6GJQsqaUBKTNV-1" source="4xnV7bBYr-C75Ydvn8o4-1" target="4xnV7bBYr-C75Ydvn8o4-21" edge="1">
          <mxGeometry width="50" height="50" relative="1" as="geometry">
            <mxPoint x="430" y="560" as="sourcePoint" />
            <mxPoint x="430" y="595" as="targetPoint" />
          </mxGeometry>
        </mxCell>
      </root>
    </mxGraphModel>
  </diagram>
</mxfile>
